<?xml version="1.0" encoding="UTF-8"?>
<svg width="77px" height="77px" viewBox="0 0 77 77" version="1.1" xmlns="http://www.w3.org/2000/svg" xmlns:xlink="http://www.w3.org/1999/xlink">
    <!-- Generator: Sketch 49.3 (51167) - http://www.bohemiancoding.com/sketch -->
    <title>apple-logo</title>
    <desc>Created with Sketch.</desc>
    <defs></defs>
    <g id="apple-logo" stroke="none" stroke-width="1" fill="none" fill-rule="evenodd">
        <path d="M10.251195,28.3054399 C13.6785905,22.3514449 19.8954207,18.5918243 26.4747057,18.4951325 C26.54017,18.4938702 26.6066453,18.4931128 26.6741316,18.4931128 C29.5037549,18.4931128 32.1766684,19.5524311 34.5348985,20.4872871 C36.2983895,21.1860938 37.8212551,21.7897235 38.9948095,21.7897235 C40.0392046,21.7897235 41.5534764,21.1934151 43.3066044,20.5029395 C45.8463145,19.5026967 49.0075561,18.2578209 52.3075616,18.2578209 C52.7301726,18.2578209 53.1510143,18.2782701 53.5587126,18.318916 C56.3683681,18.4395915 63.3470103,19.4426114 67.9001889,26.0979377 C67.9962369,26.238305 68.0316229,26.4119968 67.9977534,26.5788723 C67.9638839,26.7460002 67.8640445,26.892174 67.7207309,26.9843215 L67.659058,27.0226953 C66.3361238,27.8401578 59.7396513,32.3503393 59.8243251,40.8672989 C59.9155707,51.3504098 68.5957783,55.1966239 69.585325,55.6008109 C69.593666,55.6043453 69.6234914,55.6167158 69.6315797,55.6205027 C69.9250315,55.7550634 70.0696089,56.0888143 69.967242,56.3945422 L69.9455048,56.4629586 C69.407889,58.1832148 67.814504,62.6848127 64.638097,67.3212237 C61.5941351,71.7617265 58.1439914,76.7952557 52.5246805,76.8997737 C49.8980217,76.9490033 48.1203763,76.1774883 46.3945462,75.4317242 C44.6434403,74.6748519 42.8326836,73.8919762 39.9952247,73.8919762 C37.012683,73.8919762 35.1111862,74.7011076 33.2726261,75.4837308 C31.6350085,76.1802654 29.9412786,76.901036 27.5974557,76.9944459 C27.5009023,76.9982328 27.4066236,77 27.3125977,77 C22.3239175,77 18.6816779,72.3353136 15.0841765,67.1386958 C7.87704118,56.7444505 3.73383569,39.6017215 10.251195,28.3054399 Z M53.564526,0.000485083702 C53.8915946,-0.0123903295 54.1820133,0.23249498 54.2184104,0.56220654 C54.6804516,4.76968959 53.1530364,9.46694326 50.1323282,13.127095 C47.2622636,16.5933582 43.05966,18.7460768 39.1639044,18.7460768 C38.8904205,18.7458243 38.6159255,18.7352211 38.3469913,18.714267 C38.0494954,18.6912932 37.80887,18.4633226 37.7696925,18.1679455 C37.1448753,13.4469607 39.5165015,8.7633398 41.94424,5.9542276 C44.8009084,2.61217428 49.5803052,0.162563814 53.564526,0.000485083702 Z" fill="#FFFFFF" fill-rule="nonzero"></path>
    </g>
</svg>