<?xml version="1.0" encoding="UTF-8"?>
<svg width="51px" height="77px" viewBox="0 0 51 77" version="1.1" xmlns="http://www.w3.org/2000/svg" xmlns:xlink="http://www.w3.org/1999/xlink">
    <!-- Generator: Sketch 49.3 (51167) - http://www.bohemiancoding.com/sketch -->
    <title>arrow-down</title>
    <desc>Created with Sketch.</desc>
    <defs></defs>
    <g id="arrow-down" stroke="none" stroke-width="1" fill="none" fill-rule="evenodd">
        <path d="M39.4857379,13.6773767 C38.5579111,12.7742078 37.0487488,12.7742078 36.1170721,13.6773767 C35.1892453,14.5842932 35.1892453,16.053348 36.1170721,16.9565169 L55.8901777,36.2003858 L-10.6169096,36.2003858 C-11.9335767,36.2003858 -13,37.2384679 -13,38.5201433 C-13,39.8018187 -11.9335767,40.8399008 -10.6169096,40.8399008 L55.8439789,40.8399008 L36.1170721,60.0425462 C35.1892453,60.9457151 35.1892453,62.4147699 36.1170721,63.3216864 C36.5867603,63.7713971 37.1950451,64 37.8033299,64 C38.4116147,64 39.0237494,63.7713971 39.4857379,63.3216864 L63.3012425,40.1391017 C64.2329192,39.2321852 64.2329192,37.7668779 63.3012425,36.8599614 L39.4857379,13.6773767 Z" fill="#000000" transform="translate(25.500000, 38.500000) rotate(90.000000) translate(-25.500000, -38.500000) "></path>
    </g>
</svg>