<?xml version="1.0" encoding="UTF-8"?>
<svg width="77px" height="77px" viewBox="0 0 77 77" version="1.1" xmlns="http://www.w3.org/2000/svg" xmlns:xlink="http://www.w3.org/1999/xlink">
    <!-- Generator: Sketch 49.3 (51167) - http://www.bohemiancoding.com/sketch -->
    <title>play-market-logo</title>
    <desc>Created with Sketch.</desc>
    <defs></defs>
    <g id="play-market-logo" stroke="none" stroke-width="1" fill="none" fill-rule="evenodd">
        <path d="M69.2433083,30.4698156 L17.1659204,1.24591523 C14.1178573,-0.462100016 10.5065652,-0.41398691 7.51056536,1.39025455 C4.68495411,3.08864718 3,6.03798055 3,9.28080387 L3,67.7189819 C3,70.9666166 4.68968713,73.9159499 7.51529838,75.6143426 C9.05352896,76.5381142 10.7526821,77 12.4565683,77 C14.0705272,77 15.684486,76.5862273 17.1706534,75.7490593 L69.2480413,46.5347815 C72.2251091,44.8604455 74.0047236,41.8581877 73.9999906,38.4950816 C73.9999906,35.1367868 72.2203761,32.1393403 69.2433083,30.4698156 Z M66.952528,42.3248848 L14.8798731,71.5391625 C13.3132444,72.414821 11.4579017,72.3907645 9.9196711,71.4669929 C8.52816406,70.6346361 7.73301717,69.2682239 7.73301717,67.7189819 L7.73301717,9.28080387 C7.73301717,7.73156187 8.52816406,6.36514967 9.91020507,5.53279294 C10.705352,5.0564732 11.5809601,4.82071898 12.4565683,4.82071898 C13.2848463,4.82071898 14.1131243,5.03241664 14.8751401,5.45581197 L66.957261,34.6845236 C68.3960983,35.4928238 69.2622404,36.921783 69.2622404,38.4998929 C69.2622404,40.0780028 68.4008313,41.5117733 66.952528,42.3248848 Z M58.5845537,48.9067576 L9.17185439,2.56902564 C8.21105191,1.67412187 6.71541848,1.7318576 5.82561125,2.70855364 C4.94053704,3.68524969 4.99733325,5.20562382 5.95813573,6.1053389 L55.370835,52.4382596 C55.8252046,52.8664662 56.4026327,53.0781639 56.9753278,53.0781639 C57.6142851,53.0781639 58.2485094,52.8231644 58.7170781,52.3035429 C59.6068854,51.3268469 59.5453561,49.8064727 58.5845537,48.9067576 Z M55.9482631,23.1421896 C55.0253247,22.203984 53.5249583,22.203984 52.60202,23.1421896 L5.74514996,70.7693528 C4.82221161,71.7075584 4.82221161,73.2327438 5.74514996,74.1709494 C6.20898564,74.6376465 6.81481184,74.8734007 7.42063804,74.8734007 C8.02646424,74.8734007 8.63229043,74.6376465 9.0913931,74.1709494 L55.9482631,26.5437862 C56.8712014,25.6055806 56.8712014,24.0803952 55.9482631,23.1421896 Z" id="Shape" fill="#FFFFFF" fill-rule="nonzero"></path>
    </g>
</svg>